# xmcd
#
# Track frame offsets:
#	150
#	17068
#	29463
#	50084
#	67576
#	83857
#	100343
#	114474
#	129690
#	148452
#
# Disc length: 2209 seconds
#
# Revision: 1
# Processed by: cddbd v1.5.2PL0 Copyright (c) Steve Scherf et al.
# Submitted via: audiograbber 1.83.01
#
DISCID=8c089f0a
DTITLE=Point of Grace - Home For The Holidays
DYEAR=2010
DGENRE=Holiday
TTITLE0=White Christmas
TTITLE1=Candy Cane Lane
TTITLE2=Labor Of Love
TTITLE3=Home For The Holidays/Silver Bells
TTITLE4=Immanuel
TTITLE5=Little Drummer Boy
TTITLE6=Holly Jolly Christmas
TTITLE7=Joy To The World
TTITLE8=Not So Silent Night
TTITLE9=The Giver And The Gift
EXTD=
EXTT0=
EXTT1=
EXTT2=
EXTT3=
EXTT4=
EXTT5=
EXTT6=
EXTT7=
EXTT8=
EXTT9=
PLAYORDER=
